<svg width="72" height="36" viewBox="0 0 72 36" fill="none" xmlns="http://www.w3.org/2000/svg">
<path d="M8.52 5.28C8.52 4.72 8.3 4.23333 7.86 3.82C7.43333 3.40667 6.82667 3.2 6.04 3.2C5.37333 3.2 4.84667 3.34 4.46 3.62C4.07333 3.88667 3.88 4.25333 3.88 4.72C3.88 4.96 3.92667 5.18 4.02 5.38C4.11333 5.56667 4.27333 5.74 4.5 5.9C4.74 6.04667 5.04667 6.18 5.42 6.3C5.80667 6.42 6.29333 6.53333 6.88 6.64C8.34667 6.90667 9.46667 7.35333 10.24 7.98C11.0133 8.60667 11.4 9.53333 11.4 10.76V11C11.4 11.6533 11.28 12.2467 11.04 12.78C10.8133 13.3 10.48 13.7467 10.04 14.12C9.6 14.4933 9.06667 14.78 8.44 14.98C7.81333 15.18 7.10667 15.28 6.32 15.28C5.4 15.28 4.58667 15.1533 3.88 14.9C3.18667 14.6333 2.60667 14.2733 2.14 13.82C1.67333 13.3533 1.32 12.8133 1.08 12.2C0.84 11.5733 0.72 10.8933 0.72 10.16V9.56H3.36V10.04C3.36 10.88 3.6 11.5533 4.08 12.06C4.57333 12.5533 5.33333 12.8 6.36 12.8C7.16 12.8 7.75333 12.6267 8.14 12.28C8.52667 11.9333 8.72 11.52 8.72 11.04C8.72 10.8133 8.68 10.6 8.6 10.4C8.52 10.1867 8.38 10 8.18 9.84C7.98 9.66667 7.70667 9.51333 7.36 9.38C7.01333 9.24667 6.57333 9.13333 6.04 9.04C5.33333 8.92 4.68667 8.76667 4.1 8.58C3.51333 8.38 3 8.12 2.56 7.8C2.13333 7.48 1.8 7.08 1.56 6.6C1.32 6.12 1.2 5.53333 1.2 4.84V4.72C1.2 4.14667 1.31333 3.62 1.54 3.14C1.78 2.64667 2.10667 2.22 2.52 1.86C2.94667 1.5 3.45333 1.22 4.04 1.02C4.64 0.819999 5.30667 0.719999 6.04 0.719999C6.86667 0.719999 7.6 0.839999 8.24 1.08C8.88 1.30667 9.41333 1.62 9.84 2.02C10.28 2.42 10.6067 2.88 10.82 3.4C11.0467 3.92 11.16 4.46667 11.16 5.04V5.76H8.52V5.28ZM19.1261 9.72V15H16.4861V0.999999H21.9661C22.6861 0.999999 23.3128 1.12 23.8461 1.36C24.3794 1.58667 24.8194 1.89333 25.1661 2.28C25.5261 2.65333 25.7928 3.08667 25.9661 3.58C26.1528 4.06 26.2461 4.55333 26.2461 5.06V5.54C26.2461 6.06 26.1528 6.57333 25.9661 7.08C25.7928 7.57333 25.5261 8.02 25.1661 8.42C24.8194 8.80667 24.3794 9.12 23.8461 9.36C23.3128 9.6 22.6861 9.72 21.9661 9.72H19.1261ZM19.1261 7.2H21.7061C22.2928 7.2 22.7528 7.04 23.0861 6.72C23.4328 6.4 23.6061 5.98667 23.6061 5.48V5.24C23.6061 4.73333 23.4328 4.32 23.0861 4C22.7528 3.68 22.2928 3.52 21.7061 3.52H19.1261V7.2ZM33.6122 0.999999L35.9722 6.72H36.4522L38.8122 0.999999H41.6722L38.7922 7.8V8.16L41.6722 15H38.8122L36.4522 9.24H35.9722L33.6122 15H30.7522L33.6322 8.16V7.8L30.7522 0.999999H33.6122ZM51.2983 12.88C51.8049 12.88 52.2183 12.8067 52.5383 12.66C52.8716 12.5 53.1249 12.2933 53.2983 12.04C53.4849 11.7733 53.6116 11.4733 53.6783 11.14C53.7449 10.7933 53.7783 10.44 53.7783 10.08V9.72H56.4183V10.08C56.4183 11.7467 55.9783 13.0333 55.0983 13.94C54.2316 14.8333 52.965 15.28 51.2983 15.28C49.6983 15.28 48.4316 14.7933 47.4983 13.82C46.5649 12.8467 46.0983 11.4267 46.0983 9.56V6.44C46.0983 5.54667 46.2183 4.74667 46.4583 4.04C46.6983 3.32 47.0449 2.72 47.4983 2.24C47.9516 1.74667 48.4983 1.37333 49.1383 1.12C49.7783 0.853333 50.4983 0.719999 51.2983 0.719999C52.1249 0.719999 52.8583 0.839999 53.4983 1.08C54.1383 1.32 54.6716 1.66667 55.0983 2.12C55.5383 2.57333 55.865 3.12 56.0783 3.76C56.3049 4.4 56.4183 5.12 56.4183 5.92V6.28H53.7783V5.92C53.7783 5.58667 53.7383 5.25333 53.6583 4.92C53.5783 4.58667 53.4449 4.28667 53.2583 4.02C53.0716 3.75333 52.8183 3.54 52.4983 3.38C52.1783 3.20667 51.7783 3.12 51.2983 3.12C50.8583 3.12 50.4783 3.20667 50.1583 3.38C49.8383 3.54 49.5716 3.76667 49.3583 4.06C49.1449 4.34 48.9849 4.67333 48.8783 5.06C48.7849 5.43333 48.7383 5.82667 48.7383 6.24V9.76C48.7383 10.2133 48.7849 10.6333 48.8783 11.02C48.9716 11.3933 49.1183 11.72 49.3183 12C49.5183 12.28 49.7783 12.5 50.0983 12.66C50.4316 12.8067 50.8316 12.88 51.2983 12.88ZM61.8244 0.999999H70.6644V3.52H64.4644V6.72H70.4244V9.24H64.4644V12.48H70.9044V15H61.8244V0.999999ZM1.08 21H11.16V23.52H7.44V35H4.8V23.52H1.08V21ZM23.5461 32H18.7861L18.1061 35H15.3461L18.6861 21H23.6461L26.9861 35H24.2261L23.5461 32ZM19.3461 29.48H22.9661L21.3461 22.32H20.9861L19.3461 29.48ZM38.6122 25.28C38.6122 24.72 38.3922 24.2333 37.9522 23.82C37.5255 23.4067 36.9189 23.2 36.1322 23.2C35.4655 23.2 34.9389 23.34 34.5522 23.62C34.1655 23.8867 33.9722 24.2533 33.9722 24.72C33.9722 24.96 34.0189 25.18 34.1122 25.38C34.2055 25.5667 34.3655 25.74 34.5922 25.9C34.8322 26.0467 35.1389 26.18 35.5122 26.3C35.8989 26.42 36.3855 26.5333 36.9722 26.64C38.4389 26.9067 39.5589 27.3533 40.3322 27.98C41.1055 28.6067 41.4922 29.5333 41.4922 30.76V31C41.4922 31.6533 41.3722 32.2467 41.1322 32.78C40.9055 33.3 40.5722 33.7467 40.1322 34.12C39.6922 34.4933 39.1589 34.78 38.5322 34.98C37.9055 35.18 37.1989 35.28 36.4122 35.28C35.4922 35.28 34.6789 35.1533 33.9722 34.9C33.2789 34.6333 32.6989 34.2733 32.2322 33.82C31.7655 33.3533 31.4122 32.8133 31.1722 32.2C30.9322 31.5733 30.8122 30.8933 30.8122 30.16V29.56H33.4522V30.04C33.4522 30.88 33.6922 31.5533 34.1722 32.06C34.6655 32.5533 35.4255 32.8 36.4522 32.8C37.2522 32.8 37.8455 32.6267 38.2322 32.28C38.6189 31.9333 38.8122 31.52 38.8122 31.04C38.8122 30.8133 38.7722 30.6 38.6922 30.4C38.6122 30.1867 38.4722 30 38.2722 29.84C38.0722 29.6667 37.7989 29.5133 37.4522 29.38C37.1055 29.2467 36.6655 29.1333 36.1322 29.04C35.4255 28.92 34.7789 28.7667 34.1922 28.58C33.6055 28.38 33.0922 28.12 32.6522 27.8C32.2255 27.48 31.8922 27.08 31.6522 26.6C31.4122 26.12 31.2922 25.5333 31.2922 24.84V24.72C31.2922 24.1467 31.4055 23.62 31.6322 23.14C31.8722 22.6467 32.1989 22.22 32.6122 21.86C33.0389 21.5 33.5455 21.22 34.1322 21.02C34.7322 20.82 35.3989 20.72 36.1322 20.72C36.9589 20.72 37.6922 20.84 38.3322 21.08C38.9722 21.3067 39.5055 21.62 39.9322 22.02C40.3722 22.42 40.6989 22.88 40.9122 23.4C41.1389 23.92 41.2522 24.4667 41.2522 25.04V25.76H38.6122V25.28ZM49.3183 35H46.6783V21H49.3183V26.74H49.8983L53.5983 21H56.5783V21.12L52.2583 27.82V28.18L56.8183 34.88V35H53.7183L49.8983 29.26H49.3183V35ZM68.7044 25.28C68.7044 24.72 68.4844 24.2333 68.0444 23.82C67.6177 23.4067 67.011 23.2 66.2244 23.2C65.5577 23.2 65.031 23.34 64.6444 23.62C64.2577 23.8867 64.0644 24.2533 64.0644 24.72C64.0644 24.96 64.111 25.18 64.2044 25.38C64.2977 25.5667 64.4577 25.74 64.6844 25.9C64.9244 26.0467 65.231 26.18 65.6044 26.3C65.991 26.42 66.4777 26.5333 67.0644 26.64C68.531 26.9067 69.651 27.3533 70.4244 27.98C71.1977 28.6067 71.5844 29.5333 71.5844 30.76V31C71.5844 31.6533 71.4644 32.2467 71.2244 32.78C70.9977 33.3 70.6644 33.7467 70.2244 34.12C69.7844 34.4933 69.251 34.78 68.6244 34.98C67.9977 35.18 67.291 35.28 66.5044 35.28C65.5844 35.28 64.771 35.1533 64.0644 34.9C63.371 34.6333 62.791 34.2733 62.3244 33.82C61.8577 33.3533 61.5044 32.8133 61.2644 32.2C61.0244 31.5733 60.9044 30.8933 60.9044 30.16V29.56H63.5444V30.04C63.5444 30.88 63.7844 31.5533 64.2644 32.06C64.7577 32.5533 65.5177 32.8 66.5444 32.8C67.3444 32.8 67.9377 32.6267 68.3244 32.28C68.711 31.9333 68.9044 31.52 68.9044 31.04C68.9044 30.8133 68.8644 30.6 68.7844 30.4C68.7044 30.1867 68.5644 30 68.3644 29.84C68.1644 29.6667 67.891 29.5133 67.5444 29.38C67.1977 29.2467 66.7577 29.1333 66.2244 29.04C65.5177 28.92 64.871 28.7667 64.2844 28.58C63.6977 28.38 63.1844 28.12 62.7444 27.8C62.3177 27.48 61.9844 27.08 61.7444 26.6C61.5044 26.12 61.3844 25.5333 61.3844 24.84V24.72C61.3844 24.1467 61.4977 23.62 61.7244 23.14C61.9644 22.6467 62.291 22.22 62.7044 21.86C63.131 21.5 63.6377 21.22 64.2244 21.02C64.8244 20.82 65.491 20.72 66.2244 20.72C67.051 20.72 67.7844 20.84 68.4244 21.08C69.0644 21.3067 69.5977 21.62 70.0244 22.02C70.4644 22.42 70.791 22.88 71.0044 23.4C71.231 23.92 71.3444 24.4667 71.3444 25.04V25.76H68.7044V25.28Z" fill="#46FFF4"/>
</svg>
